<?xml version="1.0" encoding="utf-8"?>
<!-- Generator: Adobe Illustrator 26.2.1, SVG Export Plug-In . SVG Version: 6.00 Build 0)  -->
<svg version="1.1" id="Layer_1" xmlns="http://www.w3.org/2000/svg" xmlns:xlink="http://www.w3.org/1999/xlink" x="0px" y="0px"
	 viewBox="0 0 1400 980" style="enable-background:new 0 0 1400 980;" xml:space="preserve">
<style type="text/css">
	.st0{fill:#4DC1E7;}
	.st1{fill:#2A99D1;}
	.st2{fill:#45AF99;}
	.st3{fill:#374C5D;}
	.st4{fill:#DD533B;}
	.st5{fill:#F2C93B;}
	.st6{fill:#FFFFFF;}
</style>
<g id="XMLID_26_">
	<circle id="XMLID_32_" class="st0" cx="735.38" cy="447.51" r="135.63"/>
	<path id="XMLID_58_" class="st1" d="M775.95,460.08c0.26-1.87,0.46-3.76,0.6-5.67c0.01-0.14,0.01-0.29,0.02-0.43
		c0.05-0.81,0.1-1.62,0.13-2.43c0.04-0.96,0.05-1.93,0.05-2.9c0-0.96-0.01-1.9-0.02-2.84c-0.04-2.77-0.16-5.43-0.35-7.99h0.02
		c-1.06-14.18-4.56-24.89-12.51-31.46c-0.04-0.04-0.09-0.07-0.13-0.11c-0.44-0.36-0.88-0.7-1.35-1.03c-0.07-0.05-0.15-0.1-0.22-0.16
		c-0.45-0.31-0.91-0.62-1.38-0.91c-0.08-0.05-0.16-0.1-0.24-0.15c-0.5-0.3-1.01-0.59-1.54-0.86c-0.06-0.03-0.11-0.06-0.16-0.09
		c-1.78-0.91-3.71-1.68-5.82-2.3c-0.1-0.03-0.2-0.05-0.3-0.08c-0.58-0.17-1.18-0.32-1.79-0.47c-0.19-0.04-0.38-0.08-0.57-0.13
		c-0.54-0.12-1.08-0.23-1.64-0.33c-0.23-0.04-0.47-0.08-0.7-0.12c-0.54-0.09-1.08-0.17-1.64-0.25c-0.26-0.03-0.51-0.07-0.77-0.1
		c-0.56-0.07-1.13-0.12-1.71-0.18c-0.27-0.02-0.53-0.05-0.8-0.07c-0.62-0.05-1.26-0.08-1.9-0.11c-0.24-0.01-0.47-0.03-0.71-0.04
		c-0.09,0-0.17-0.01-0.26-0.01v-41.8c0-1.79-1.45-3.24-3.24-3.24s-3.24,1.45-3.24,3.24v41.86c-0.47,0.02-0.94,0.05-1.4,0.08
		c-0.41,0.03-0.81,0.07-1.21,0.1c-0.44,0.04-0.88,0.08-1.31,0.12c-0.43,0.05-0.84,0.1-1.26,0.15c-0.38,0.05-0.76,0.1-1.14,0.16
		c-0.43,0.07-0.86,0.13-1.28,0.21c-0.33,0.06-0.66,0.12-0.98,0.18c-0.44,0.09-0.87,0.17-1.3,0.27c-0.28,0.06-0.54,0.13-0.81,0.2
		c-0.46,0.11-0.91,0.22-1.35,0.35c-0.18,0.05-0.36,0.11-0.54,0.16c-3.05,0.9-5.74,2.09-8.12,3.56c-0.04,0.02-0.07,0.04-0.11,0.07
		c-0.47,0.29-0.92,0.6-1.36,0.91c-0.03,0.02-0.07,0.05-0.1,0.07c-0.45,0.33-0.89,0.66-1.32,1.01c-0.01,0.01-0.01,0.01-0.02,0.02
		c-7.99,6.53-11.53,17.08-12.55,31.24h0c0,0,0,0,0,0.01c-0.11,1.55-0.2,3.14-0.25,4.77c0,0.05,0,0.1,0,0.15
		c-0.05,1.62-0.08,3.27-0.08,4.98c0,1.02,0.02,2.05,0.05,3.07c0,0.13,0.01,0.27,0.02,0.4c0.03,0.91,0.08,1.82,0.14,2.72
		c0,0.04,0.01,0.09,0.01,0.13c0.14,2.03,0.34,4.04,0.6,6.05c0,0,0,0,0,0h0c3.19,24.4,15.66,46.23,34.05,49.98l2.87,38.24
		c0.06,0.82,1.25,0.85,1.35,0.04l4.91-38c16.47-2.8,31.14-25.01,34.67-50.26h0C775.95,460.09,775.95,460.09,775.95,460.08z"/>
	<path id="XMLID_53_" class="st2" d="M772.9,442.69c0,29.67-17.6,58.54-36.79,58.54c-23.36,0-38.25-29.74-38.25-59.41
		c0-29.67,7.88-46.13,38.25-46.13C765.6,395.69,772.9,413.02,772.9,442.69z"/>
	<g id="XMLID_45_">
		<path id="XMLID_48_" class="st3" d="M735.52,414.84h-0.36c-1.69,0-3.06-1.37-3.06-3.06v-61.15c0-1.69,1.37-3.06,3.06-3.06h0.36
			c1.69,0,3.06,1.37,3.06,3.06v61.15C738.57,413.47,737.21,414.84,735.52,414.84z"/>
		<path id="XMLID_50_" class="st4" d="M729.65,493.01l3.68,49.02c0.06,0.82,1.25,0.85,1.35,0.04l6.34-49.05H729.65z"/>
		<path id="XMLID_51_" class="st5" d="M775.08,442.36c0,31.43-18.64,62.01-38.97,62.01c-24.74,0-40.51-31.51-40.51-62.93
			s8.35-48.86,40.51-48.86C767.34,392.57,775.08,410.94,775.08,442.36z"/>
		<path id="XMLID_52_" class="st4" d="M695.95,431.54h78.77c-1.85-24.78-11.14-38.97-38.6-38.97
			C707.52,392.57,697.76,406.38,695.95,431.54z"/>
		<path id="XMLID_54_" class="st6" d="M695.6,441.43c0,4.15,0.28,8.29,0.82,12.37h77.85c0.53-3.77,0.81-7.6,0.81-11.44
			c0-3.8-0.12-7.41-0.37-10.82h-78.77C695.71,434.67,695.6,437.96,695.6,441.43z"/>
	</g>
</g>
</svg>
