<?xml version="1.0" encoding="utf-8"?>
<!-- Generator: Adobe Illustrator 26.2.1, SVG Export Plug-In . SVG Version: 6.00 Build 0)  -->
<svg version="1.1" id="Layer_1" xmlns="http://www.w3.org/2000/svg" xmlns:xlink="http://www.w3.org/1999/xlink" x="0px" y="0px"
	 viewBox="0 0 1400 980" style="enable-background:new 0 0 1400 980;" xml:space="preserve">
<style type="text/css">
	.st0{fill:#4DC1E7;}
	.st1{fill:#FFFFFF;}
	.st2{fill:#2A99D1;}
	.st3{fill:#45AF99;}
	.st4{fill:#374C5D;}
	.st5{fill:#DD533B;}
	.st6{fill:#F2C93B;}
</style>
<path class="st0" d="M828.9,479c0,56.2-84.5,235.3-115.9,300c-4.7,9.6-18.3,9.5-22.8-0.2c-30.3-65-111.3-244.1-111.3-299.8
	c0-69,56-125,125-125S828.9,410,828.9,479z"/>
<g id="XMLID_26_">
	<circle id="XMLID_32_" class="st1" cx="703.9" cy="479" r="100"/>
	<path id="XMLID_58_" class="st2" d="M735,488.7c0.2-1.4,0.4-2.9,0.5-4.4c0-0.1,0-0.2,0-0.3c0-0.6,0.1-1.2,0.1-1.9
		c0-0.7,0-1.5,0-2.2c0-0.7,0-1.5,0-2.2c0-2.1-0.1-4.2-0.3-6.1h0c-0.8-10.9-3.5-19.1-9.6-24.2c0,0-0.1-0.1-0.1-0.1
		c-0.3-0.3-0.7-0.5-1-0.8c-0.1,0-0.1-0.1-0.2-0.1c-0.3-0.2-0.7-0.5-1.1-0.7c-0.1,0-0.1-0.1-0.2-0.1c-0.4-0.2-0.8-0.5-1.2-0.7
		c0,0-0.1,0-0.1-0.1c-1.4-0.7-2.8-1.3-4.5-1.8c-0.1,0-0.2,0-0.2-0.1c-0.4-0.1-0.9-0.2-1.4-0.4c-0.1,0-0.3-0.1-0.4-0.1
		c-0.4-0.1-0.8-0.2-1.3-0.3c-0.2,0-0.4-0.1-0.5-0.1c-0.4-0.1-0.8-0.1-1.3-0.2c-0.2,0-0.4-0.1-0.6-0.1c-0.4-0.1-0.9-0.1-1.3-0.1
		c-0.2,0-0.4,0-0.6-0.1c-0.5,0-1-0.1-1.5-0.1c-0.2,0-0.4,0-0.5,0c-0.1,0-0.1,0-0.2,0v-32.1c0-1.4-1.1-2.5-2.5-2.5s-2.5,1.1-2.5,2.5
		v32.1c-0.4,0-0.7,0-1.1,0.1c-0.3,0-0.6,0.1-0.9,0.1c-0.3,0-0.7,0.1-1,0.1c-0.3,0-0.6,0.1-1,0.1c-0.3,0-0.6,0.1-0.9,0.1
		c-0.3,0.1-0.7,0.1-1,0.2c-0.3,0-0.5,0.1-0.8,0.1c-0.3,0.1-0.7,0.1-1,0.2c-0.2,0-0.4,0.1-0.6,0.2c-0.4,0.1-0.7,0.2-1,0.3
		c-0.1,0-0.3,0.1-0.4,0.1c-2.3,0.7-4.4,1.6-6.2,2.7c0,0-0.1,0-0.1,0.1c-0.4,0.2-0.7,0.5-1,0.7c0,0-0.1,0-0.1,0.1
		c-0.3,0.3-0.7,0.5-1,0.8c0,0,0,0,0,0c-6.1,5-8.9,13.1-9.6,24l0,0c0,0,0,0,0,0c-0.1,1.2-0.2,2.4-0.2,3.7c0,0,0,0.1,0,0.1
		c0,1.2-0.1,2.5-0.1,3.8c0,0.8,0,1.6,0,2.4c0,0.1,0,0.2,0,0.3c0,0.7,0.1,1.4,0.1,2.1c0,0,0,0.1,0,0.1c0.1,1.6,0.3,3.1,0.5,4.6l0,0
		l0,0c2.4,18.7,12,35.5,26.1,38.4l2.2,29.4c0,0.6,1,0.7,1,0l3.8-29.2C721,525.1,732.3,508,735,488.7L735,488.7
		C735,488.7,735,488.7,735,488.7z"/>
	<path id="XMLID_53_" class="st3" d="M732.7,475.3c0,22.8-13.5,44.9-28.2,44.9c-17.9,0-29.4-22.8-29.4-45.6s6.1-35.4,29.4-35.4
		C727.1,439.2,732.7,452.5,732.7,475.3z"/>
	<g id="XMLID_45_">
		<path id="XMLID_48_" class="st4" d="M704,453.9h-0.3c-1.3,0-2.3-1.1-2.3-2.3v-46.9c0-1.3,1.1-2.3,2.3-2.3h0.3
			c1.3,0,2.3,1.1,2.3,2.3v46.9C706.3,452.9,705.3,453.9,704,453.9z"/>
		<path id="XMLID_50_" class="st5" d="M699.5,513.9l2.8,37.6c0,0.6,1,0.7,1,0l4.9-37.7L699.5,513.9L699.5,513.9z"/>
		<path id="XMLID_51_" class="st6" d="M734.3,475.1c0,24.1-14.3,47.6-29.9,47.6c-19,0-31.1-24.2-31.1-48.3s6.4-37.5,31.1-37.5
			C728.4,436.8,734.3,450.9,734.3,475.1z"/>
		<path id="XMLID_52_" class="st5" d="M673.6,466.7h60.5c-1.4-19-8.6-29.9-29.6-29.9C682.5,436.8,675,447.4,673.6,466.7z"/>
		<path id="XMLID_54_" class="st1" d="M673.3,474.3c0,3.2,0.2,6.4,0.6,9.5h59.8c0.4-2.9,0.6-5.8,0.6-8.8c0-2.9-0.1-5.7-0.3-8.3
			h-60.5C673.4,469.1,673.3,471.7,673.3,474.3z"/>
	</g>
</g>
<path class="st0" d="M1021.1,657.9"/>
</svg>
