<?xml version="1.0" encoding="utf-8"?>
<!-- Generator: Adobe Illustrator 26.2.1, SVG Export Plug-In . SVG Version: 6.00 Build 0)  -->
<svg version="1.1" id="Layer_1" xmlns="http://www.w3.org/2000/svg" xmlns:xlink="http://www.w3.org/1999/xlink" x="0px" y="0px"
	 viewBox="0 0 1400 980" style="enable-background:new 0 0 1400 980;" xml:space="preserve">
<style type="text/css">
	.st0{fill:#2859C6;}
	.st1{fill:#FFFFFF;}
	.st2{fill:#2A99D1;}
	.st3{fill:#45AF99;}
	.st4{fill:#374C5D;}
	.st5{fill:#DD533B;}
	.st6{fill:#F2C93B;}
	.st7{fill:#4DC1E7;}
</style>
<path class="st0" d="M782,477.3c0,13.5-20.3,56.6-27.9,72.1c-1.1,2.3-4.4,2.3-5.5,0c-7.3-15.6-26.8-58.7-26.8-72.1
	c0-16.6,13.5-30,30-30S782,460.7,782,477.3z"/>
<g id="XMLID_26_">
	<circle id="XMLID_32_" class="st1" cx="752" cy="477.3" r="24"/>
	<path id="XMLID_58_" class="st2" d="M759.4,479.6c0-0.3,0.1-0.7,0.1-1.1c0,0,0,0,0-0.1c0-0.1,0-0.3,0-0.5s0-0.4,0-0.5
		c0-0.2,0-0.4,0-0.5c0-0.5,0-1-0.1-1.5l0,0c-0.2-2.6-0.8-4.6-2.3-5.8l0,0c-0.1-0.1-0.2-0.1-0.2-0.2c0,0,0,0,0,0
		c-0.1,0-0.2-0.1-0.3-0.2c0,0,0,0,0,0c-0.1,0-0.2-0.1-0.3-0.2c0,0,0,0,0,0c-0.3-0.2-0.7-0.3-1.1-0.4c0,0,0,0,0,0
		c-0.1,0-0.2,0-0.3-0.1c0,0-0.1,0-0.1,0c-0.1,0-0.2,0-0.3-0.1c0,0-0.1,0-0.1,0c-0.1,0-0.2,0-0.3,0c0,0-0.1,0-0.1,0
		c-0.1,0-0.2,0-0.3,0c0,0-0.1,0-0.1,0c-0.1,0-0.2,0-0.4,0c0,0-0.1,0-0.1,0c0,0,0,0,0,0v-7.7c0-0.3-0.3-0.6-0.6-0.6
		c-0.3,0-0.6,0.3-0.6,0.6v7.7c-0.1,0-0.2,0-0.3,0c-0.1,0-0.1,0-0.2,0c-0.1,0-0.2,0-0.2,0c-0.1,0-0.1,0-0.2,0c-0.1,0-0.1,0-0.2,0
		c-0.1,0-0.2,0-0.2,0c-0.1,0-0.1,0-0.2,0c-0.1,0-0.2,0-0.2,0c0,0-0.1,0-0.1,0c-0.1,0-0.2,0-0.2,0.1c0,0-0.1,0-0.1,0
		c-0.6,0.2-1.1,0.4-1.5,0.6c0,0,0,0,0,0c-0.1,0-0.2,0.1-0.2,0.2c0,0,0,0,0,0c-0.1,0.1-0.2,0.1-0.2,0.2l0,0c-1.5,1.2-2.1,3.1-2.3,5.8
		l0,0l0,0c0,0.3,0,0.6,0,0.9v0c0,0.3,0,0.6,0,0.9c0,0.2,0,0.4,0,0.6c0,0,0,0,0,0.1c0,0.2,0,0.3,0,0.5v0c0,0.4,0.1,0.7,0.1,1.1l0,0
		l0,0c0.6,4.5,2.9,8.5,6.3,9.2l0.5,7.1c0,0.1,0.2,0.2,0.2,0l0.9-7C756.1,488.4,758.8,484.3,759.4,479.6L759.4,479.6L759.4,479.6z"/>
	<path id="XMLID_53_" class="st3" d="M758.9,476.4c0,5.5-3.2,10.8-6.8,10.8c-4.3,0-7.1-5.5-7.1-11c0-5.5,1.5-8.5,7.1-8.5
		C757.5,467.7,758.9,470.9,758.9,476.4z"/>
	<g id="XMLID_45_">
		<path id="XMLID_48_" class="st4" d="M752,471.3L752,471.3c-0.4,0-0.6-0.3-0.6-0.6v-11.3c0-0.3,0.3-0.6,0.6-0.6h0.1
			c0.3,0,0.6,0.3,0.6,0.6v11.3C752.5,471,752.3,471.3,752,471.3z"/>
		<path id="XMLID_50_" class="st5" d="M750.9,485.7l0.7,9c0,0.1,0.2,0.2,0.2,0l1.2-9.1L750.9,485.7L750.9,485.7z"/>
		<path id="XMLID_51_" class="st6" d="M759.3,476.4c0,5.8-3.4,11.4-7.2,11.4c-4.6,0-7.5-5.8-7.5-11.6s1.5-9,7.5-9
			C757.8,467.2,759.3,470.5,759.3,476.4z"/>
		<path id="XMLID_52_" class="st5" d="M744.7,474.3h14.5c-0.3-4.6-2.1-7.2-7.1-7.2C746.8,467.2,745,469.7,744.7,474.3z"/>
		<path id="XMLID_54_" class="st1" d="M744.6,476.2c0,0.8,0,1.5,0.1,2.3h14.4c0.1-0.7,0.1-1.4,0.1-2.1c0-0.7,0-1.4-0.1-2h-14.5
			C744.6,474.9,744.6,475.5,744.6,476.2z"/>
	</g>
</g>
<path class="st7" d="M1021.1,657.9"/>
</svg>
